<svg xmlns="http://www.w3.org/2000/svg" xmlns:xlink="http://www.w3.org/1999/xlink" viewBox="0 0 1080 1080" width="1080" height="1080" preserveAspectRatio="xMidYMid meet" style="width: 100%; height: 100%; transform: translate3d(0px, 0px, 0px); content-visibility: visible;"><defs><clipPath id="__lottie_element_3"><rect width="1080" height="1080" x="0" y="0"></rect></clipPath></defs><g clip-path="url(#__lottie_element_3)"><g transform="matrix(2.8611249923706055,0,0,2.8611249923706055,777.473388671875,611.5281372070312)" opacity="0.010040000000000902" style="display: none;"><g opacity="1" transform="matrix(1,0,0,1,-83,-25)"><path fill="rgb(244,67,54)" fill-opacity="1" d=" M0,-150 C82.78500366210938,-150 150,-82.78500366210938 150,0 C150,82.78500366210938 82.78500366210938,150 0,150 C-82.78500366210938,150 -150,82.78500366210938 -150,0 C-150,-82.78500366210938 -82.78500366210938,-150 0,-150z"></path><path stroke-linecap="butt" stroke-linejoin="miter" fill-opacity="0" stroke-miterlimit="4" stroke="rgb(233,66,52)" stroke-opacity="1" stroke-width="0" d=" M0,-150 C82.78500366210938,-150 150,-82.78500366210938 150,0 C150,82.78500366210938 82.78500366210938,150 0,150 C-82.78500366210938,150 -150,82.78500366210938 -150,0 C-150,-82.78500366210938 -82.78500366210938,-150 0,-150z"></path></g></g><g transform="matrix(2.8796989917755127,0,0,2.8796989917755127,779.0150146484375,611.9924926757812)" opacity="0.00015999999999905868" style="display: none;"><g opacity="1" transform="matrix(1,0,0,1,-83,-25)"><path fill="rgb(244,67,54)" fill-opacity="1" d=" M0,-150 C82.78500366210938,-150 150,-82.78500366210938 150,0 C150,82.78500366210938 82.78500366210938,150 0,150 C-82.78500366210938,150 -150,82.78500366210938 -150,0 C-150,-82.78500366210938 -82.78500366210938,-150 0,-150z"></path><path stroke-linecap="butt" stroke-linejoin="miter" fill-opacity="0" stroke-miterlimit="4" stroke="rgb(233,66,52)" stroke-opacity="1" stroke-width="0" d=" M0,-150 C82.78500366210938,-150 150,-82.78500366210938 150,0 C150,82.78500366210938 82.78500366210938,150 0,150 C-82.78500366210938,150 -150,82.78500366210938 -150,0 C-150,-82.78500366210938 -82.78500366210938,-150 0,-150z"></path></g></g><g transform="matrix(2.541374444961548,0,0,2.541374444961548,750.93408203125,603.5343627929688)" opacity="0.18012000000000256" style="display: block;"><g opacity="1" transform="matrix(1,0,0,1,-83,-25)"><path fill="rgb(244,67,54)" fill-opacity="1" d=" M0,-150 C82.78500366210938,-150 150,-82.78500366210938 150,0 C150,82.78500366210938 82.78500366210938,150 0,150 C-82.78500366210938,150 -150,82.78500366210938 -150,0 C-150,-82.78500366210938 -82.78500366210938,-150 0,-150z"></path><path stroke-linecap="butt" stroke-linejoin="miter" fill-opacity="0" stroke-miterlimit="4" stroke="rgb(233,66,52)" stroke-opacity="1" stroke-width="0" d=" M0,-150 C82.78500366210938,-150 150,-82.78500366210938 150,0 C150,82.78500366210938 82.78500366210938,150 0,150 C-82.78500366210938,150 -150,82.78500366210938 -150,0 C-150,-82.78500366210938 -82.78500366210938,-150 0,-150z"></path></g></g><g transform="matrix(2.165374517440796,0,0,2.165374517440796,719.72607421875,594.1343383789062)" opacity="0.38012000000000257" style="display: block;"><g opacity="1" transform="matrix(1,0,0,1,-83,-25)"><path fill="rgb(244,67,54)" fill-opacity="1" d=" M0,-150 C82.78500366210938,-150 150,-82.78500366210938 150,0 C150,82.78500366210938 82.78500366210938,150 0,150 C-82.78500366210938,150 -150,82.78500366210938 -150,0 C-150,-82.78500366210938 -82.78500366210938,-150 0,-150z"></path><path stroke-linecap="butt" stroke-linejoin="miter" fill-opacity="0" stroke-miterlimit="4" stroke="rgb(233,66,52)" stroke-opacity="1" stroke-width="0" d=" M0,-150 C82.78500366210938,-150 150,-82.78500366210938 150,0 C150,82.78500366210938 82.78500366210938,150 0,150 C-82.78500366210938,150 -150,82.78500366210938 -150,0 C-150,-82.78500366210938 -82.78500366210938,-150 0,-150z"></path></g></g><g transform="matrix(1.7893743515014648,0,0,1.7893743515014648,688.51806640625,584.734375)" opacity="0.5801200000000025" style="display: block;"><g opacity="1" transform="matrix(1,0,0,1,-83,-25)"><path fill="rgb(244,67,54)" fill-opacity="1" d=" M0,-150 C82.78500366210938,-150 150,-82.78500366210938 150,0 C150,82.78500366210938 82.78500366210938,150 0,150 C-82.78500366210938,150 -150,82.78500366210938 -150,0 C-150,-82.78500366210938 -82.78500366210938,-150 0,-150z"></path><path stroke-linecap="butt" stroke-linejoin="miter" fill-opacity="0" stroke-miterlimit="4" stroke="rgb(233,66,52)" stroke-opacity="1" stroke-width="0" d=" M0,-150 C82.78500366210938,-150 150,-82.78500366210938 150,0 C150,82.78500366210938 82.78500366210938,150 0,150 C-82.78500366210938,150 -150,82.78500366210938 -150,0 C-150,-82.78500366210938 -82.78500366210938,-150 0,-150z"></path></g></g><g transform="matrix(1.4133743047714233,0,0,1.4133743047714233,657.31005859375,575.3343505859375)" opacity="0.7801200000000026" style="display: block;"><g opacity="1" transform="matrix(1,0,0,1,-83,-25)"><path fill="rgb(244,67,54)" fill-opacity="1" d=" M0,-150 C82.78500366210938,-150 150,-82.78500366210938 150,0 C150,82.78500366210938 82.78500366210938,150 0,150 C-82.78500366210938,150 -150,82.78500366210938 -150,0 C-150,-82.78500366210938 -82.78500366210938,-150 0,-150z"></path><path stroke-linecap="butt" stroke-linejoin="miter" fill-opacity="0" stroke-miterlimit="4" stroke="rgb(233,66,52)" stroke-opacity="1" stroke-width="0" d=" M0,-150 C82.78500366210938,-150 150,-82.78500366210938 150,0 C150,82.78500366210938 82.78500366210938,150 0,150 C-82.78500366210938,150 -150,82.78500366210938 -150,0 C-150,-82.78500366210938 -82.78500366210938,-150 0,-150z"></path></g></g><g transform="matrix(1.0373743772506714,0,0,1.0373743772506714,626.10205078125,565.9343872070312)" opacity="0.9801200000000025" style="display: block;"><g opacity="1" transform="matrix(1,0,0,1,-83,-25)"><path fill="rgb(244,67,54)" fill-opacity="1" d=" M0,-150 C82.78500366210938,-150 150,-82.78500366210938 150,0 C150,82.78500366210938 82.78500366210938,150 0,150 C-82.78500366210938,150 -150,82.78500366210938 -150,0 C-150,-82.78500366210938 -82.78500366210938,-150 0,-150z"></path><path stroke-linecap="butt" stroke-linejoin="miter" fill-opacity="0" stroke-miterlimit="4" stroke="rgb(233,66,52)" stroke-opacity="1" stroke-width="0" d=" M0,-150 C82.78500366210938,-150 150,-82.78500366210938 150,0 C150,82.78500366210938 82.78500366210938,150 0,150 C-82.78500366210938,150 -150,82.78500366210938 -150,0 C-150,-82.78500366210938 -82.78500366210938,-150 0,-150z"></path></g></g><g transform="matrix(1.7519999742507935,0,0,1.7519999742507935,685.416015625,583.7999877929688)" opacity="0.6" style="display: none;"><g opacity="1" transform="matrix(1,0,0,1,-83,-25)"><path fill="rgb(244,67,54)" fill-opacity="1" d=" M0,-150 C82.78500366210938,-150 150,-82.78500366210938 150,0 C150,82.78500366210938 82.78500366210938,150 0,150 C-82.78500366210938,150 -150,82.78500366210938 -150,0 C-150,-82.78500366210938 -82.78500366210938,-150 0,-150z"></path><path stroke-linecap="butt" stroke-linejoin="miter" fill-opacity="0" stroke-miterlimit="4" stroke="rgb(233,66,52)" stroke-opacity="1" stroke-width="0" d=" M0,-150 C82.78500366210938,-150 150,-82.78500366210938 150,0 C150,82.78500366210938 82.78500366210938,150 0,150 C-82.78500366210938,150 -150,82.78500366210938 -150,0 C-150,-82.78500366210938 -82.78500366210938,-150 0,-150z"></path></g></g><g transform="matrix(1.3760000467300415,0,0,1.3760000467300415,654.2080078125,574.4000244140625)" opacity="0.8" style="display: none;"><g opacity="1" transform="matrix(1,0,0,1,-83,-25)"><path fill="rgb(244,67,54)" fill-opacity="1" d=" M0,-150 C82.78500366210938,-150 150,-82.78500366210938 150,0 C150,82.78500366210938 82.78500366210938,150 0,150 C-82.78500366210938,150 -150,82.78500366210938 -150,0 C-150,-82.78500366210938 -82.78500366210938,-150 0,-150z"></path><path stroke-linecap="butt" stroke-linejoin="miter" fill-opacity="0" stroke-miterlimit="4" stroke="rgb(233,66,52)" stroke-opacity="1" stroke-width="0" d=" M0,-150 C82.78500366210938,-150 150,-82.78500366210938 150,0 C150,82.78500366210938 82.78500366210938,150 0,150 C-82.78500366210938,150 -150,82.78500366210938 -150,0 C-150,-82.78500366210938 -82.78500366210938,-150 0,-150z"></path></g></g><g transform="matrix(1,0,0,1,621,565)" opacity="1" style="display: none;"><g opacity="1" transform="matrix(1,0,0,1,-83,-25)"><path fill="rgb(244,67,54)" fill-opacity="1" d=" M0,-150 C82.78500366210938,-150 150,-82.78500366210938 150,0 C150,82.78500366210938 82.78500366210938,150 0,150 C-82.78500366210938,150 -150,82.78500366210938 -150,0 C-150,-82.78500366210938 -82.78500366210938,-150 0,-150z"></path><path stroke-linecap="butt" stroke-linejoin="miter" fill-opacity="0" stroke-miterlimit="4" stroke="rgb(233,66,52)" stroke-opacity="1" stroke-width="0" d=" M0,-150 C82.78500366210938,-150 150,-82.78500366210938 150,0 C150,82.78500366210938 82.78500366210938,150 0,150 C-82.78500366210938,150 -150,82.78500366210938 -150,0 C-150,-82.78500366210938 -82.78500366210938,-150 0,-150z"></path></g></g><g transform="matrix(1,0,0,1,623,565)" opacity="1" style="display: block;"><g opacity="1" transform="matrix(1,0,0,1,-83,-25)"><path fill="rgb(244,67,54)" fill-opacity="1" d=" M0,-150 C82.78500366210938,-150 150,-82.78500366210938 150,0 C150,82.78500366210938 82.78500366210938,150 0,150 C-82.78500366210938,150 -150,82.78500366210938 -150,0 C-150,-82.78500366210938 -82.78500366210938,-150 0,-150z"></path></g></g><g transform="matrix(1,0,0,1,-2361.93603515625,1341.3720703125)" opacity="1" style="display: block;"><g opacity="1" transform="matrix(1,0,0,1,0,0)"><path fill="rgb(255,255,255)" fill-opacity="1" d=" M2853.43603515625,-858.8720092773438 C2853.43603515625,-858.8720092773438 2853.43603515625,-743.8720092773438 2853.43603515625,-743.8720092773438 C2853.43603515625,-737.8720092773438 2856.01904296875,-733.3720092773438 2861.18603515625,-730.3720092773438 C2866.35302734375,-727.3720092773438 2871.43603515625,-727.5390014648438 2876.43603515625,-730.8720092773438 C2876.43603515625,-730.8720092773438 2966.93603515625,-788.8720092773438 2966.93603515625,-788.8720092773438 C2971.60302734375,-791.8720092773438 2973.93603515625,-796.0390014648438 2973.93603515625,-801.3720092773438 C2973.93603515625,-806.7050170898438 2971.60302734375,-810.8720092773438 2966.93603515625,-813.8720092773438 C2966.93603515625,-813.8720092773438 2876.43603515625,-871.8720092773438 2876.43603515625,-871.8720092773438 C2871.43603515625,-875.2050170898438 2866.35302734375,-875.3720092773438 2861.18603515625,-872.3720092773438 C2856.01904296875,-869.3720092773438 2853.43603515625,-864.8720092773438 2853.43603515625,-858.8720092773438z"></path></g></g></g></svg>